<?xml version="1.0" standalone="no"?>
<!DOCTYPE svg PUBLIC "-//W3C//DTD SVG 20010904//EN"
 "http://www.w3.org/TR/2001/REC-SVG-20010904/DTD/svg10.dtd">
<svg version="1.0" xmlns="http://www.w3.org/2000/svg"
 width="501.000000pt" height="498.000000pt" viewBox="0 0 501.000000 498.000000"
 preserveAspectRatio="xMidYMid meet">

<g transform="translate(0.000000,498.000000) scale(0.100000,-0.100000)"
fill="#000000" stroke="none">
<path d="M1851 2851 c-66 -8 -81 -26 -81 -98 0 -41 5 -57 20 -70 14 -12 20
-30 20 -56 0 -20 9 -65 21 -99 52 -155 158 -204 353 -163 122 26 196 89 232
197 20 61 42 61 62 -2 20 -62 66 -126 110 -155 74 -49 234 -70 323 -43 90 27
156 119 166 233 4 43 13 68 29 88 28 33 33 111 10 142 -16 22 -85 33 -216 34
-135 1 -249 -15 -343 -49 -100 -37 -121 -37 -206 -1 -38 16 -100 34 -139 40
-75 12 -271 13 -361 2z m412 -125 c55 -27 72 -66 58 -132 -22 -99 -104 -149
-242 -148 -57 0 -72 4 -103 28 -43 32 -65 80 -72 156 -10 98 29 121 206 117
88 -2 124 -7 153 -21z m659 14 c57 -16 68 -33 68 -103 -1 -154 -97 -223 -258
-183 -105 26 -147 69 -158 163 -8 62 17 97 84 117 55 17 211 20 264 6z"/>
<path d="M1513 2168 c-44 -21 -55 -68 -51 -219 3 -132 4 -140 28 -163 14 -14
42 -28 62 -31 31 -6 41 -3 63 19 26 26 27 26 32 6 3 -11 14 -20 24 -20 17 0
19 9 19 105 l0 105 -55 0 c-52 0 -55 -1 -55 -25 0 -21 5 -25 31 -25 l32 0 -7
-46 c-8 -60 -20 -74 -63 -74 -48 0 -63 39 -63 168 0 115 12 160 45 168 49 12
68 -2 80 -58 4 -22 11 -28 30 -28 18 0 25 5 25 20 0 33 -27 88 -48 99 -26 14
-100 13 -129 -1z"/>
<path d="M1750 1970 l0 -210 80 0 c73 0 80 2 80 20 0 18 -7 20 -55 20 l-55 0
0 190 0 190 -25 0 -25 0 0 -210z"/>
<path d="M2005 2148 c-3 -18 -13 -64 -21 -103 -8 -38 -22 -101 -30 -140 -8
-38 -19 -87 -23 -107 -9 -37 -8 -38 20 -38 25 0 29 4 34 38 11 63 12 63 57 60
42 -3 43 -4 50 -47 9 -52 10 -53 40 -49 l25 3 -39 185 c-21 102 -41 195 -44
208 -3 17 -11 22 -33 22 -25 0 -30 -5 -36 -32z m54 -143 c15 -106 16 -105 -20
-105 -31 0 -31 1 -26 38 3 20 9 61 13 90 4 28 10 52 14 52 4 0 13 -34 19 -75z"/>
<path d="M2218 2150 c-27 -28 -30 -36 -25 -77 5 -43 11 -53 86 -123 82 -77 98
-109 69 -138 -32 -32 -98 2 -98 50 0 13 -8 18 -30 18 -35 0 -38 -13 -13 -64
21 -46 70 -70 124 -61 50 9 79 44 79 97 0 60 -12 78 -104 152 -58 47 -73 79
-51 112 26 40 76 30 94 -19 8 -19 17 -27 36 -27 29 0 32 17 10 60 -20 38 -43
50 -100 50 -39 0 -52 -5 -77 -30z"/>
<path d="M2488 2160 c-15 -11 -28 -33 -30 -52 -9 -57 9 -93 70 -143 78 -65 92
-83 92 -114 0 -34 -17 -51 -51 -51 -31 0 -44 14 -53 56 -6 26 -11 30 -31 26
-34 -6 -33 -50 0 -90 54 -64 172 -46 187 28 14 71 -4 101 -120 201 -28 25 -42
45 -42 61 0 66 72 80 100 20 12 -25 20 -32 40 -30 20 3 24 8 22 28 -2 14 -16
37 -33 53 -37 34 -112 38 -151 7z"/>
<path d="M2730 1970 l0 -210 80 0 c74 0 80 2 80 21 0 11 -4 18 -9 15 -5 -3
-30 -3 -55 0 l-46 7 0 73 0 73 38 3 c30 2 38 7 40 26 3 20 -1 22 -38 22 l-41
0 3 68 3 67 53 3 c44 3 52 6 52 23 0 17 -7 19 -80 19 l-80 0 0 -210z"/>
<path d="M2955 2155 c-20 -19 -25 -34 -25 -76 0 -55 8 -66 118 -160 32 -27 42
-43 42 -66 0 -36 -16 -53 -51 -53 -31 0 -47 16 -55 57 -5 25 -10 29 -30 25
-33 -6 -32 -51 1 -90 52 -62 162 -47 185 23 20 60 -3 109 -81 171 -69 57 -79
70 -79 109 0 56 76 62 99 8 14 -31 46 -45 64 -27 10 11 -15 64 -40 84 -38 30
-116 28 -148 -5z"/>
<path d="M3290 2015 c0 -225 15 -259 115 -259 102 -1 125 49 125 278 l0 146
-30 0 -30 0 0 -168 c0 -135 -3 -172 -16 -190 -18 -25 -60 -29 -90 -8 -17 13
-19 30 -22 190 l-4 176 -24 0 -24 0 0 -165z"/>
<path d="M3590 1970 l0 -210 30 0 30 0 0 210 0 210 -30 0 -30 0 0 -210z"/>
<path d="M3170 1880 c0 -17 7 -20 45 -20 38 0 45 3 45 20 0 17 -7 20 -45 20
-38 0 -45 -3 -45 -20z"/>
</g>
</svg>
